<?xml version="1.0" encoding="utf-8"?>
<!-- Generator: Adobe Illustrator 27.2.0, SVG Export Plug-In . SVG Version: 6.00 Build 0)  -->
<svg version="1.1" id="Layer_1" xmlns="http://www.w3.org/2000/svg" xmlns:xlink="http://www.w3.org/1999/xlink" x="0px" y="0px"
	 viewBox="0 0 16 14" style="enable-background:new 0 0 16 14;" xml:space="preserve">
<style type="text/css">
	.st0{fill-rule:evenodd;clip-rule:evenodd;fill:#0C4186;}
</style>
<path class="st0" d="M11,8c-1.3,0-2.4,0.8-2.8,2L0,10v2l8.2,0c0.4,1.2,1.5,2,2.8,2s2.4-0.8,2.8-2l2.2,0v-2l-2.2,0
	C13.4,8.8,12.3,8,11,8z M11,10c0.6,0,1,0.4,1,1c0,0.5-0.4,0.9-0.9,1L11,12c-0.6,0-1-0.4-1-1c0-0.5,0.4-0.9,0.9-1L11,10z M5,0
	c1.3,0,2.4,0.8,2.8,2L16,2v2L7.8,4C7.4,5.2,6.3,6,5,6S2.6,5.2,2.2,4L0,4V2l2.2,0C2.6,0.8,3.7,0,5,0z M5,2C4.4,2,4,2.4,4,3
	c0,0.5,0.4,0.9,0.9,1L5,4c0.6,0,1-0.4,1-1c0-0.5-0.4-0.9-0.9-1L5,2z"/>
</svg>
